<!DOCTYPE svg PUBLIC "-//W3C//DTD SVG 1.1//EN" "http://www.w3.org/Graphics/SVG/1.1/DTD/svg11.dtd">
<svg version="1.1" id="Layer_1" xmlns="http://www.w3.org/2000/svg" xmlns:xlink="http://www.w3.org/1999/xlink" x="0px" y="0px"
	 width="170.775px" height="170.775px" viewBox="0 0 170.775 170.775" enable-background="new 0 0 648.371 170.775"
	 xml:space="preserve">
<circle id="circle47_1_" fill="#FFFFFF" cx="85.314" cy="85.713" r="83.805"/>
<path id="path49_1_" fill-opacity="0.1" d="M138.644,100.95c0-29.454-23.877-53.331-53.33-53.331
	c-29.454,0-53.331,23.877-53.331,53.331h15.237c0-21.039,17.055-38.094,38.093-38.094c21.038,0,38.093,17.055,38.093,38.094"/>
<circle id="circle51_1_" fill-opacity="0.1" cx="89.123" cy="96.379" r="28.951"/>
<linearGradient id="circle53_2_" gradientUnits="userSpaceOnUse" x1="-175.6665" y1="582.1975" x2="-175.6665" y2="581.4358" gradientTransform="matrix(82 0 0 -82 14489.9707 47794.6992)">
	<stop  offset="0" style="stop-color:#81B4E0"/>
	<stop  offset="1" style="stop-color:#0C5A94"/>
</linearGradient>
<circle id="circle53_1_" fill="url(#circle53_2_)" cx="85.314" cy="85.712" r="31.236"/>
<linearGradient id="path55_2_" gradientUnits="userSpaceOnUse" x1="-114.519" y1="250.3918" x2="-114.519" y2="181.0621" gradientTransform="matrix(1 0 0 -1 202.5 250.7759)">
	<stop  offset="0" style="stop-color:#F06B59"/>
	<stop  offset="1" style="stop-color:#DF2227"/>
</linearGradient>
<path id="path55_1_" fill="url(#path55_2_)" d="M161.5,47.619C140.525,5.419,89.312-11.788,47.111,9.186
	c-13.159,6.54-24.405,16.367-32.65,28.53l34.284,59.425c-6.314-20.068,4.837-41.456,24.905-47.769
	c3.529-1.11,7.203-1.701,10.902-1.752"/>
<linearGradient id="path57_2_" gradientUnits="userSpaceOnUse" x1="-181.7378" y1="104.4104" x2="-146.6928" y2="162.3109" gradientTransform="matrix(1 0 0 -1 202.5 250.7759)">
	<stop  offset="0" style="stop-color:#388B41"/>
	<stop  offset="1" style="stop-color:#4CB749"/>
</linearGradient>
<path id="path57_1_" fill="url(#path57_2_)" d="M14.461,37.716C-11.78,76.86-1.32,129.864,37.824,156.105
	c12.111,8.119,26.1,12.999,40.633,14.175l35.808-60.948c-13.389,16.228-37.397,18.529-53.625,5.14
	c-5.512-4.547-9.634-10.552-11.895-17.33"/>
<linearGradient id="path59_2_" gradientUnits="userSpaceOnUse" x1="-64.3374" y1="98.2522" x2="-101.6683" y2="188.1511" gradientTransform="matrix(1 0 0 -1 202.5 250.7759)">
	<stop  offset="0" style="stop-color:#E4B022"/>
	<stop  offset="0.3" style="stop-color:#FCD209"/>
</linearGradient>
<path id="path59_1_" fill="url(#path59_2_)" d="M78.457,170.28c46.991,3.552,87.965-31.662,91.518-78.653
	c1.146-15.162-1.779-30.354-8.476-44.007H84.552c21.037,0.097,38.014,17.23,37.917,38.268c-0.039,8.511-2.928,16.766-8.205,23.444"
	/>
<linearGradient id="path61_2_" gradientUnits="userSpaceOnUse" x1="-170.1362" y1="155.9202" x2="-170.1362" y2="216.8683" gradientTransform="matrix(1 0 0 -1 202.5 250.7759)">
	<stop  offset="0" style="stop-color:#000000;stop-opacity:0.15"/>
	<stop  offset="0.3" style="stop-color:#000000;stop-opacity:0.06"/>
	<stop  offset="1" style="stop-color:#000000;stop-opacity:0.03"/>
</linearGradient>
<path id="path61_1_" fill="url(#path61_2_)" d="M14.461,37.716l34.284,59.425c-2.54-8.547-2-17.714,1.523-25.904L15.984,35.43"/>
<linearGradient id="path63_2_" gradientUnits="userSpaceOnUse" x1="-86.0093" y1="136.2385" x2="-127.911" y2="93.5749" gradientTransform="matrix(1 0 0 -1 202.5 250.7759)">
	<stop  offset="0" style="stop-color:#000000;stop-opacity:0.15"/>
	<stop  offset="0.3" style="stop-color:#000000;stop-opacity:0.06"/>
	<stop  offset="1" style="stop-color:#000000;stop-opacity:0.03"/>
</linearGradient>
<path id="path63_1_" fill="url(#path63_2_)" d="M78.457,170.28l35.808-60.948c-5.65,6.737-13.456,11.312-22.094,12.951
	L76.933,170.28"/>
<linearGradient id="path65_2_" gradientUnits="userSpaceOnUse" x1="-86.6157" y1="123.9641" x2="-80.5211" y2="184.1482" gradientTransform="matrix(1 0 0 -1 202.5 250.7759)">
	<stop  offset="0" style="stop-color:#000000;stop-opacity:0.15"/>
	<stop  offset="0.3" style="stop-color:#000000;stop-opacity:0.06"/>
	<stop  offset="1" style="stop-color:#000000;stop-opacity:0.03"/>
</linearGradient>
<path id="path65_1_" fill="url(#path65_2_)" d="M161.5,47.619H84.552c11.59,0.054,22.526,5.381,29.712,14.476l48.759-12.19"/>
</svg>
